{"title":"Lincoln ITA ENG AC3 BDRip 1080p X264 ZMachine","uid":9522148,"size":3514911620,"categoryP":"video","categoryS":"hd___movies","magnet":"?xt=urn:btih:824bab1ed162b6fa43507dea283f97ddaa848952&amp;dn=+Lincoln+ITA+ENG+AC3+BDRip+1080p+X264+ZMachine&amp;tr=udp%3A%2F%2Ftracker.openbittorrent.com%3A80&amp;tr=udp%3A%2F%2Fopen.demonii.com%3A1337&amp;tr=udp%3A%2F%2Ftracker.coppersurfer.tk%3A6969&amp;tr=udp%3A%2F%2Fexodus.desync.com%3A6969","seeders":10,"leechers":1,"uploader":"ZMachTNT","files":-1,"time":1390662082,"description":".: Title :.\n\nLincoln \n\n.: Original Release :.\n &lt;a href=&quot;\nhttp://forum.tntvillage.scambioetico.org/index.php?showtopic=382231&quot; rel=&quot;nofollow&quot; target=&quot;_NEW&quot;&gt;\nhttp://forum.tntvillage.scambioetico.org/index.php?showtopic=382231&lt;/a&gt;\n\n.: Mediainfo :.\n\nGeneral\nUnique ID : 230162085703207557035035253384484599486 (0xAD279AF467FDAE34ACECAFBAFF21B6BE)\nComplete name : H:TNTVillageSourcesLincoln.ITA.ENG.AC3.BDRip.1080p.X264-ZMachine.mkv\nFormat : Matroska\nFormat version : Version 4 / Version 2\nFile size : 3.27 GiB\nDuration : 2h 29mn\nOverall bit rate : 3 125 Kbps\nMovie name : Lincoln - ZMachine\nEncoded date : UTC 2014-01-05 21:06:30\nWriting application : mkvmerge v6.5.0 ('Isn't she lovely') built on Oct 20 2013 12:50:05\nWriting library : libebml v1.3.0 + libmatroska v1.4.1\n\nVideo\nID : 1\nFormat : AVC\nFormat/Info : Advanced Video Codec\nFormat profile : &lt;a class=&quot;__cf_email__&quot; href=&quot;/cdn-cgi/l/email-protection&quot; data-cfemail=&quot;8bc3e2ece3cbc7bfa5ba&quot;&gt;[email&amp;#160;protected]&lt;/a&gt;&lt;script cf-hash='f9e31' type=&quot;text/javascript&quot;&gt;\n/* &lt;![CDATA[ */!function(){try{var t=&quot;currentScript&quot;in document?document.currentScript:function(){for(var t=document.getElementsByTagName(&quot;script&quot;),e=t.length;e--;)if(t[e].getAttribute(&quot;cf-hash&quot;))return t[e]}();if(t&amp;&amp;t.previousSibling){var e,r,n,i,c=t.previousSibling,a=c.getAttribute(&quot;data-cfemail&quot;);if(a){for(e=&quot;&quot;,r=parseInt(a.substr(0,2),16),n=2;a.length-n;n+=2)i=parseInt(a.substr(n,2),16)^r,e+=String.fromCharCode(i);e=document.createTextNode(e),c.parentNode.replaceChild(e,c)}}}catch(u){}}();/* ]]&gt; */&lt;/script&gt;\nFormat settings, CABAC : Yes\nFormat settings, ReFrames : 4 frames\nCodec ID : V_MPEG4/ISO/AVC\nDuration : 2h 29mn\nBit rate : 2 355 Kbps\nWidth : 1 920 pixels\nHeight : 800 pixels\nDisplay aspect ratio : 2.40:1\nFrame rate mode : Constant\nFrame rate : 23.976 fps\nColor space : YUV\nChroma subsampling : 4:2:0\nBit depth : 8 bits\nScan type : Progressive\nBits/(Pixel*Frame) : 0.064\nStream size : 2.40 GiB (73%)\nTitle : Video H.264\nWriting library : x264 core 123 r2189 35cf912\nEncoding settings : cabac=1 / ref=4 / deblock=1:0:0 / analyse=0x3:0x133 / me=hex / subme=9 / psy=1 / psy_rd=1.00:0.00 / mixed_ref=1 / me_range=16 / chroma_me=1 / trellis=1 / 8x8dct=1 / cqm=0 / deadzone=21,11 / fast_pskip=1 / chroma_qp_offset=-2 / threads=12 / sliced_threads=0 / nr=0 / decimate=1 / interlaced=0 / bluray_compat=0 / constrained_intra=0 / bframes=3 / b_pyramid=2 / b_adapt=1 / b_bias=0 / direct=1 / weightb=1 / open_gop=0 / weightp=2 / keyint=250 / keyint_min=25 / scenecut=40 / intra_refresh=0 / rc_lookahead=40 / rc=2pass / mbtree=1 / bitrate=2355 / ratetol=1.0 / qcomp=0.60 / qpmin=10 / qpmax=51 / qpstep=4 / cplxblur=20.0 / qblur=0.5 / ip_ratio=1.40 / aq=1:1.00\nDefault : Yes\nForced : No\n\nAudio #1\nID : 2\nFormat : AC-3\nFormat/Info : Audio Coding 3\nMode extension : CM (complete main)\nFormat settings, Endianness : Big\nCodec ID : A_AC3\nDuration : 2h 29mn\nBit rate mode : Constant\nBit rate : 384 Kbps\nChannel(s) : 6 channels\nChannel positions : Front: L C R, Side: L R, LFE\nSampling rate : 48.0 KHz\nBit depth : 16 bits\nCompression mode : Lossy\nDelay relative to video : -301ms\nStream size : 412 MiB (12%)\nTitle : Audio AC3\nLanguage : Italian\nDefault : Yes\nForced : No\n\nAudio #2\nID : 3\nFormat : AC-3\nFormat/Info : Audio Coding 3\nMode extension : CM (complete main)\nFormat settings, Endianness : Big\nCodec ID : A_AC3\nDuration : 2h 29mn\nBit rate mode : Constant\nBit rate : 384 Kbps\nChannel(s) : 6 channels\nChannel positions : Front: L C R, Side: L R, LFE\nSampling rate : 48.0 KHz\nBit depth : 16 bits\nCompression mode : Lossy\nDelay relative to video : -251ms\nStream size : 412 MiB (12%)\nTitle : Audio AC3\nLanguage : English\nDefault : No\nForced : No\n\nText #1\nID : 4\nFormat : ASS\nCodec ID : S_TEXT/ASS\nCodec ID/Info : Advanced Sub Station Alpha\nCompression mode : Lossless\nTitle : Sub\nLanguage : Italian\nDefault : No\nForced : No\n\nText #2\nID : 5\nFormat : ASS\nCodec ID : S_TEXT/ASS\nCodec ID/Info : Advanced Sub Station Alpha\nCompression mode : Lossless\nTitle : Sub\nLanguage : English\nDefault : No\nForced : No\n\nMenu\n00:00:00.000 : it:00:00:00.000\n00:06:11.246 : it:00:06:11.246\n00:13:57.920 : it:00:13:57.920\n00:23:16.604 : it:00:23:16.604\n00:35:13.570 : it:00:35:13.570\n00:40:31.929 : it:00:40:31.929\n00:45:53.793 : it:00:45:53.793\n00:52:56.840 : it:00:52:56.840\n00:59:45.874 : it:00:59:45.874\n01:08:25.977 : it:01:08:25.977\n01:18:55.940 : it:01:18:55.940\n01:24:30.607 : it:01:24:30.607\n01:35:41.486 : it:01:35:41.486\n01:39:58.868 : it:01:39:58.868\n01:46:40.769 : it:01:46:40.769\n01:52:54.184 : it:01:52:54.184\n02:02:51.030 : it:02:02:51.030\n02:09:32.264 : it:02:09:32.264\n02:15:42.718 : it:02:15:42.718\n02:21:23.308 : it:02:21:23.308","torrent":{"xt":"urn:btih:824bab1ed162b6fa43507dea283f97ddaa848952","amp;dn":"+Lincoln+ITA+ENG+AC3+BDRip+1080p+X264+ZMachine","amp;tr":["udp%3A%2F%2Ftracker.openbittorrent.com%3A80","udp%3A%2F%2Fopen.demonii.com%3A1337","udp%3A%2F%2Ftracker.coppersurfer.tk%3A6969","udp%3A%2F%2Fexodus.desync.com%3A6969"],"infoHash":"824bab1ed162b6fa43507dea283f97ddaa848952","infoHashBuffer":{"type":"Buffer","data":[130,75,171,30,209,98,182,250,67,80,125,234,40,63,151,221,170,132,137,82]},"announce":[],"urlList":[]}}